<svg width="512" height="512" viewBox="0 0 512 512" xmlns="http://www.w3.org/2000/svg">
  <defs>
    <linearGradient id="g" x1="0" y1="0" x2="1" y2="1">
      <stop offset="0%" stop-color="#4ADE80"/>
      <stop offset="55%" stop-color="#15803D"/>
      <stop offset="100%" stop-color="#0B5A2B"/>
    </linearGradient>
  </defs>
  <rect width="512" height="512" rx="128" fill="url(#g)"/>
  <g fill="#F1FBF4">
    <rect x="112" y="150" width="268" height="176" rx="34"/>
    <rect x="86" y="164" width="32" height="92" rx="13"/>
  </g>
  <g fill="#0B5A2B">
    <rect x="138" y="180" width="66" height="60" rx="12"/>
    <rect x="218" y="180" width="66" height="60" rx="12"/>
    <rect x="298" y="180" width="52" height="60" rx="12"/>
    <rect x="138" y="266" width="212" height="20" rx="8"/>
  </g>
  <g fill="#0A2116">
    <circle cx="166" cy="338" r="30"/>
    <circle cx="326" cy="338" r="30"/>
  </g>
  <g fill="#4ADE80">
    <circle cx="166" cy="338" r="13"/>
    <circle cx="326" cy="338" r="13"/>
  </g>
  <!-- Fuel drop: what sets this app apart from the orange ticketing one on a
       home screen full of NAWABUS tools. -->
  <path d="M414 256c0 0 44 48 44 76a44 44 0 0 1-88 0c0-28 44-76 44-76z" fill="#F1FBF4"/>
  <path d="M414 300c0 0 22 26 22 40a22 22 0 0 1-44 0c0-14 22-40 22-40z" fill="#15803D"/>
</svg>
